<mxfile host="Electron" modified="2023-09-17T23:12:35.383Z" agent="Mozilla/5.0 (Windows NT 10.0; Win64; x64) AppleWebKit/537.36 (KHTML, like Gecko) draw.io/21.6.8 Chrome/114.0.5735.289 Electron/25.5.0 Safari/537.36" etag="ctKPV2xLcnYI5E3agEEK" version="21.6.8" type="device">
  <diagram name="Page-1" id="WHQLFZEmOLXgxnO-ru3o">
    <mxGraphModel dx="794" dy="511" grid="1" gridSize="10" guides="1" tooltips="1" connect="1" arrows="1" fold="1" page="1" pageScale="1" pageWidth="850" pageHeight="1100" background="none" math="0" shadow="0">
      <root>
        <mxCell id="0" />
        <mxCell id="1" parent="0" />
        <mxCell id="BrLQcdWhv361JB5G2Uyz-1" value="" style="ellipse;html=1;shape=startState;shadow=0;fillColor=#0050ef;fontColor=#ffffff;strokeColor=#001DBC;" parent="1" vertex="1">
          <mxGeometry x="175" y="80" width="30" height="30" as="geometry" />
        </mxCell>
        <mxCell id="B_OPzfA6b2jCfDyIjKJi-4" value="" style="edgeStyle=orthogonalEdgeStyle;rounded=0;orthogonalLoop=1;jettySize=auto;html=1;" edge="1" parent="1" source="B_OPzfA6b2jCfDyIjKJi-1" target="B_OPzfA6b2jCfDyIjKJi-2">
          <mxGeometry relative="1" as="geometry" />
        </mxCell>
        <mxCell id="B_OPzfA6b2jCfDyIjKJi-10" value="" style="edgeStyle=orthogonalEdgeStyle;rounded=0;orthogonalLoop=1;jettySize=auto;html=1;" edge="1" parent="1" source="B_OPzfA6b2jCfDyIjKJi-2" target="B_OPzfA6b2jCfDyIjKJi-5">
          <mxGeometry relative="1" as="geometry" />
        </mxCell>
        <mxCell id="B_OPzfA6b2jCfDyIjKJi-2" value="max = a" style="rounded=1;whiteSpace=wrap;html=1;fillColor=#0050ef;fontColor=#ffffff;strokeColor=#001DBC;" vertex="1" parent="1">
          <mxGeometry x="130" y="220" width="120" height="60" as="geometry" />
        </mxCell>
        <mxCell id="B_OPzfA6b2jCfDyIjKJi-5" value="b &amp;gt; max" style="rhombus;whiteSpace=wrap;html=1;fillColor=#0050ef;fontColor=#ffffff;strokeColor=#001DBC;" vertex="1" parent="1">
          <mxGeometry x="150" y="300" width="80" height="80" as="geometry" />
        </mxCell>
        <mxCell id="B_OPzfA6b2jCfDyIjKJi-6" value="" style="edgeStyle=orthogonalEdgeStyle;html=1;verticalAlign=bottom;endArrow=open;endSize=8;rounded=0;shadow=0;" edge="1" parent="1" source="BrLQcdWhv361JB5G2Uyz-1" target="B_OPzfA6b2jCfDyIjKJi-1">
          <mxGeometry relative="1" as="geometry">
            <mxPoint x="405" y="170" as="targetPoint" />
            <mxPoint x="405" y="110" as="sourcePoint" />
          </mxGeometry>
        </mxCell>
        <mxCell id="B_OPzfA6b2jCfDyIjKJi-1" value="int a;&lt;br&gt;int b;&lt;br&gt;int c;&lt;br&gt;int max;" style="rounded=0;whiteSpace=wrap;html=1;fillColor=#0050ef;fontColor=#ffffff;strokeColor=#001DBC;" vertex="1" parent="1">
          <mxGeometry x="130" y="140" width="120" height="60" as="geometry" />
        </mxCell>
        <mxCell id="B_OPzfA6b2jCfDyIjKJi-16" value="max = b" style="rounded=1;whiteSpace=wrap;html=1;fillColor=#0050ef;fontColor=#ffffff;strokeColor=#001DBC;" vertex="1" parent="1">
          <mxGeometry x="320" y="310" width="120" height="60" as="geometry" />
        </mxCell>
        <mxCell id="B_OPzfA6b2jCfDyIjKJi-37" value="" style="edgeStyle=orthogonalEdgeStyle;rounded=0;orthogonalLoop=1;jettySize=auto;html=1;" edge="1" parent="1" source="B_OPzfA6b2jCfDyIjKJi-25" target="B_OPzfA6b2jCfDyIjKJi-36">
          <mxGeometry relative="1" as="geometry" />
        </mxCell>
        <mxCell id="B_OPzfA6b2jCfDyIjKJi-42" value="" style="edgeStyle=orthogonalEdgeStyle;rounded=0;orthogonalLoop=1;jettySize=auto;html=1;" edge="1" parent="1" source="B_OPzfA6b2jCfDyIjKJi-25" target="B_OPzfA6b2jCfDyIjKJi-41">
          <mxGeometry relative="1" as="geometry" />
        </mxCell>
        <mxCell id="B_OPzfA6b2jCfDyIjKJi-25" value="c &amp;gt; max" style="rhombus;whiteSpace=wrap;html=1;fillColor=#0050ef;strokeColor=#001DBC;fontColor=#ffffff;" vertex="1" parent="1">
          <mxGeometry x="150" y="420" width="80" height="80" as="geometry" />
        </mxCell>
        <mxCell id="B_OPzfA6b2jCfDyIjKJi-33" value="Yes" style="html=1;verticalAlign=bottom;endArrow=block;edgeStyle=elbowEdgeStyle;elbow=vertical;curved=0;rounded=0;exitX=1;exitY=0.5;exitDx=0;exitDy=0;entryX=0;entryY=0.5;entryDx=0;entryDy=0;" edge="1" parent="1" source="B_OPzfA6b2jCfDyIjKJi-5" target="B_OPzfA6b2jCfDyIjKJi-16">
          <mxGeometry width="80" relative="1" as="geometry">
            <mxPoint x="230" y="410" as="sourcePoint" />
            <mxPoint x="310" y="410" as="targetPoint" />
          </mxGeometry>
        </mxCell>
        <mxCell id="B_OPzfA6b2jCfDyIjKJi-34" value="No" style="html=1;verticalAlign=bottom;endArrow=block;edgeStyle=elbowEdgeStyle;elbow=vertical;curved=0;rounded=0;exitX=0.5;exitY=1;exitDx=0;exitDy=0;entryX=0.5;entryY=0;entryDx=0;entryDy=0;" edge="1" parent="1" source="B_OPzfA6b2jCfDyIjKJi-5" target="B_OPzfA6b2jCfDyIjKJi-25">
          <mxGeometry width="80" relative="1" as="geometry">
            <mxPoint x="380" y="470" as="sourcePoint" />
            <mxPoint x="460" y="470" as="targetPoint" />
          </mxGeometry>
        </mxCell>
        <mxCell id="B_OPzfA6b2jCfDyIjKJi-35" value="" style="endArrow=classic;html=1;rounded=0;exitX=0.5;exitY=1;exitDx=0;exitDy=0;entryX=1;entryY=0.5;entryDx=0;entryDy=0;" edge="1" parent="1" source="B_OPzfA6b2jCfDyIjKJi-16" target="B_OPzfA6b2jCfDyIjKJi-25">
          <mxGeometry width="50" height="50" relative="1" as="geometry">
            <mxPoint x="300" y="420" as="sourcePoint" />
            <mxPoint x="350" y="370" as="targetPoint" />
          </mxGeometry>
        </mxCell>
        <mxCell id="B_OPzfA6b2jCfDyIjKJi-36" value="max = c" style="rounded=1;whiteSpace=wrap;html=1;fillColor=#0050ef;fontColor=#ffffff;strokeColor=#001DBC;" vertex="1" parent="1">
          <mxGeometry x="320" y="430" width="120" height="60" as="geometry" />
        </mxCell>
        <mxCell id="B_OPzfA6b2jCfDyIjKJi-38" value="" style="ellipse;html=1;shape=endState;fillColor=#0050ef;strokeColor=#001DBC;fontColor=#ffffff;" vertex="1" parent="1">
          <mxGeometry x="175" y="650" width="30" height="30" as="geometry" />
        </mxCell>
        <mxCell id="B_OPzfA6b2jCfDyIjKJi-43" value="" style="edgeStyle=orthogonalEdgeStyle;rounded=0;orthogonalLoop=1;jettySize=auto;html=1;" edge="1" parent="1" source="B_OPzfA6b2jCfDyIjKJi-41" target="B_OPzfA6b2jCfDyIjKJi-38">
          <mxGeometry relative="1" as="geometry" />
        </mxCell>
        <mxCell id="B_OPzfA6b2jCfDyIjKJi-41" value="System.out.print(max)" style="rounded=1;whiteSpace=wrap;html=1;fillColor=#0050ef;fontColor=#ffffff;strokeColor=#001DBC;" vertex="1" parent="1">
          <mxGeometry x="130" y="540" width="120" height="60" as="geometry" />
        </mxCell>
        <mxCell id="B_OPzfA6b2jCfDyIjKJi-44" value="" style="endArrow=classic;html=1;rounded=0;exitX=0.5;exitY=1;exitDx=0;exitDy=0;entryX=1;entryY=0.5;entryDx=0;entryDy=0;" edge="1" parent="1" source="B_OPzfA6b2jCfDyIjKJi-36" target="B_OPzfA6b2jCfDyIjKJi-41">
          <mxGeometry width="50" height="50" relative="1" as="geometry">
            <mxPoint x="340" y="610" as="sourcePoint" />
            <mxPoint x="390" y="560" as="targetPoint" />
          </mxGeometry>
        </mxCell>
      </root>
    </mxGraphModel>
  </diagram>
</mxfile>
